<svg width="48" height="48" viewBox="0 0 48 48" fill="none" xmlns="http://www.w3.org/2000/svg">
<path fill-rule="evenodd" clip-rule="evenodd" d="M16.659 24.672C16.5545 24.4634 16.5001 24.2333 16.5001 24C16.5001 23.7666 16.5545 23.5365 16.659 23.328L25.659 5.32796C25.7463 5.1503 25.8679 4.99167 26.0169 4.86123C26.1658 4.7308 26.339 4.63112 26.5266 4.56796C26.7143 4.5048 26.9125 4.4794 27.11 4.49323C27.3075 4.50706 27.5003 4.55984 27.6772 4.64853C27.8542 4.73722 28.0119 4.86006 28.1412 5.00998C28.2705 5.15989 28.3688 5.33392 28.4305 5.52202C28.4922 5.71012 28.5161 5.90857 28.5007 6.10593C28.4853 6.3033 28.4311 6.49567 28.341 6.67196L19.68 24L28.341 41.328C28.4311 41.5042 28.4853 41.6966 28.5007 41.894C28.5161 42.0913 28.4922 42.2898 28.4305 42.4779C28.3688 42.666 28.2705 42.84 28.1412 42.9899C28.0119 43.1399 27.8542 43.2627 27.6772 43.3514C27.5003 43.4401 27.3075 43.4929 27.11 43.5067C26.9125 43.5205 26.7143 43.4951 26.5266 43.432C26.339 43.3688 26.1658 43.2691 26.0169 43.1387C25.8679 43.0082 25.7463 42.8496 25.659 42.672L16.659 24.672Z" fill="#F98948"/>
</svg>
