<svg width="32" height="32" viewBox="0 0 32 32" fill="none" xmlns="http://www.w3.org/2000/svg">
<path d="M30.1067 6.39556L24.8889 1.15111C24.5441 0.808058 24.0775 0.615479 23.5911 0.615479C23.1047 0.615479 22.6381 0.808058 22.2933 1.15111L3.79554 19.6222L2.10666 26.9111C2.0484 27.1776 2.05039 27.4537 2.1125 27.7192C2.17461 27.9848 2.29526 28.2332 2.46565 28.4461C2.63603 28.6591 2.85183 28.8313 3.0973 28.9502C3.34277 29.0691 3.61169 29.1317 3.88443 29.1333C4.01152 29.1462 4.13957 29.1462 4.26666 29.1333L11.6355 27.4444L30.1067 8.99111C30.4497 8.64632 30.6423 8.17972 30.6423 7.69333C30.6423 7.20695 30.4497 6.74035 30.1067 6.39556ZM10.7467 25.8444L3.83999 27.2933L5.41332 20.52L19.2533 6.73333L24.5867 12.0667L10.7467 25.8444ZM25.7778 10.7778L20.4444 5.44445L23.5378 2.36889L28.7822 7.70222L25.7778 10.7778Z" fill="black"/>
</svg>
