<svg width="50" height="50" viewBox="0 0 50 50" fill="none" xmlns="http://www.w3.org/2000/svg">
<path d="M24.9999 2.77778C20.6048 2.77778 16.3084 4.08109 12.6539 6.5229C8.99951 8.96471 6.15123 12.4353 4.46929 16.4959C2.78734 20.5565 2.34726 25.0247 3.20471 29.3353C4.06216 33.646 6.17862 37.6057 9.28646 40.7135C12.3943 43.8213 16.3539 45.9378 20.6646 46.7952C24.9753 47.6527 29.4434 47.2126 33.504 45.5307C37.5646 43.8487 41.0352 41.0004 43.477 37.346C45.9189 33.6916 47.2222 29.3951 47.2222 25C47.2222 19.1063 44.8809 13.454 40.7134 9.28652C36.546 5.11904 30.8936 2.77778 24.9999 2.77778ZM24.9999 44.4444C21.1542 44.4444 17.3948 43.304 14.1972 41.1675C10.9996 39.0309 8.50732 35.9941 7.03562 32.4411C5.56391 28.8881 5.17885 24.9784 5.92912 21.2066C6.67939 17.4347 8.53129 13.9701 11.2506 11.2507C13.97 8.53135 17.4347 6.67944 21.2065 5.92918C24.9784 5.17891 28.888 5.56397 32.441 7.03568C35.994 8.50738 39.0308 10.9996 41.1674 14.1972C43.304 17.3949 44.4444 21.1543 44.4444 25C44.4444 30.157 42.3958 35.1028 38.7492 38.7493C35.1027 42.3958 30.1569 44.4444 24.9999 44.4444Z" fill="#003D5F"/>
<path d="M25.4028 12.3889C23.8977 12.364 22.4057 12.6709 21.0326 13.2878C19.6596 13.9048 18.4392 14.8165 17.4584 15.9583C17.3221 16.0846 17.2125 16.237 17.1362 16.4063C17.0599 16.5757 17.0183 16.7587 17.0139 16.9444C17.0138 17.1158 17.0482 17.2854 17.115 17.4432C17.1818 17.6011 17.2797 17.7438 17.4028 17.863C17.5259 17.9822 17.6717 18.0755 17.8316 18.1372C17.9914 18.1989 18.1621 18.2278 18.3334 18.2222C18.7003 18.2131 19.0511 18.0698 19.3195 17.8194C20.0618 16.9496 20.9837 16.2508 22.0219 15.7713C23.0601 15.2918 24.1898 15.0429 25.3334 15.0417C28.6111 15.0417 30.6528 17.1528 30.6528 19.7778V19.8472C30.6528 22.9167 28.2084 24.625 24.3472 24.9167C24.1909 24.9227 24.0376 24.9617 23.8974 25.0311C23.7571 25.1005 23.6331 25.1987 23.5335 25.3193C23.4338 25.4399 23.3608 25.5802 23.3191 25.7311C23.2775 25.8819 23.2681 26.0398 23.2917 26.1944V30.0139C23.3262 30.3577 23.4877 30.6762 23.7445 30.9074C24.0013 31.1385 24.3351 31.2656 24.6806 31.2639H24.8334C25.1771 31.2293 25.4957 31.0679 25.7268 30.8111C25.958 30.5543 26.0851 30.2205 26.0834 29.875V27.0139C30.25 26.4306 33.625 24.2361 33.625 19.6806V19.6111C33.5834 15.4444 30.3334 12.3889 25.4028 12.3889Z" fill="#003D5F"/>
<path d="M24.6945 38.125C25.6533 38.125 26.4306 37.3477 26.4306 36.3889C26.4306 35.4301 25.6533 34.6528 24.6945 34.6528C23.7357 34.6528 22.9584 35.4301 22.9584 36.3889C22.9584 37.3477 23.7357 38.125 24.6945 38.125Z" fill="#003D5F"/>
</svg>
