<svg width="22" height="14" viewBox="0 0 22 14" fill="none" xmlns="http://www.w3.org/2000/svg">
<path d="M2.2218 8.09375V8.099C2.19233 8.21015 2.14123 8.3144 2.07144 8.40579C2.00165 8.49718 1.91453 8.57392 1.81507 8.63161C1.7156 8.68931 1.60573 8.72684 1.49175 8.74205C1.37777 8.75726 1.26191 8.74985 1.1508 8.72025C0.396549 8.52075 0.529548 7.651 0.529548 7.651L0.559298 7.5425C0.559298 7.5425 0.604799 7.3955 0.641549 7.28875C1.09064 6.0296 1.75175 4.85653 2.5963 3.82025C4.16955 1.90575 6.8103 0 10.9998 0C15.191 0 17.8318 1.90575 19.4015 3.82025C20.2461 4.85653 20.9072 6.0296 21.3563 7.28875C21.394 7.39694 21.429 7.50606 21.4613 7.616L21.4665 7.63875L21.47 7.64575V7.64925C21.5256 7.87197 21.4913 8.10757 21.3747 8.30529C21.2582 8.50301 21.0686 8.647 20.8468 8.70622C20.625 8.76545 20.3889 8.73517 20.1893 8.62191C19.9896 8.50865 19.8425 8.32148 19.7795 8.10075L19.7778 8.09375L19.7638 8.05C19.6645 7.74027 19.5476 7.43645 19.4138 7.14C19.057 6.34693 18.5981 5.60388 18.0488 4.92975C16.7485 3.346 14.5768 1.75 10.9998 1.75C7.4228 1.75 5.2493 3.346 3.9508 4.92975C3.2377 5.8056 2.6785 6.79618 2.29705 7.85925C2.27543 7.92244 2.25501 7.98604 2.2358 8.05L2.2218 8.09375Z" fill="#F98948"/>
<path d="M11 5.25C9.83968 5.25 8.72688 5.71094 7.90641 6.53141C7.08594 7.35188 6.625 8.46468 6.625 9.625C6.625 10.7853 7.08594 11.8981 7.90641 12.7186C8.72688 13.5391 9.83968 14 11 14C12.1603 14 13.2731 13.5391 14.0936 12.7186C14.9141 11.8981 15.375 10.7853 15.375 9.625C15.375 8.46468 14.9141 7.35188 14.0936 6.53141C13.2731 5.71094 12.1603 5.25 11 5.25ZM8.375 9.625C8.375 8.92881 8.65156 8.26113 9.14384 7.76884C9.63613 7.27656 10.3038 7 11 7C11.6962 7 12.3639 7.27656 12.8562 7.76884C13.3484 8.26113 13.625 8.92881 13.625 9.625C13.625 10.3212 13.3484 10.9889 12.8562 11.4812C12.3639 11.9734 11.6962 12.25 11 12.25C10.3038 12.25 9.63613 11.9734 9.14384 11.4812C8.65156 10.9889 8.375 10.3212 8.375 9.625Z" fill="#F98948"/>
</svg>
