<svg width="48" height="48" viewBox="0 0 48 48" fill="none" xmlns="http://www.w3.org/2000/svg">
<path fill-rule="evenodd" clip-rule="evenodd" d="M23.328 16.659C23.5366 16.5545 23.7667 16.5 24 16.5C24.2333 16.5 24.4634 16.5545 24.672 16.659L42.672 25.659C42.8497 25.7463 43.0083 25.8679 43.1388 26.0168C43.2692 26.1657 43.3689 26.339 43.432 26.5266C43.4952 26.7142 43.5206 26.9125 43.5068 27.11C43.4929 27.3075 43.4401 27.5002 43.3515 27.6772C43.2628 27.8542 43.1399 28.0119 42.99 28.1412C42.8401 28.2704 42.6661 28.3688 42.478 28.4305C42.2899 28.4922 42.0914 28.516 41.8941 28.5007C41.6967 28.4853 41.5043 28.4311 41.328 28.341L24 19.68L6.67203 28.341C6.49574 28.4311 6.30337 28.4853 6.106 28.5007C5.90864 28.516 5.71019 28.4922 5.52209 28.4305C5.33399 28.3688 5.15997 28.2704 5.01005 28.1412C4.86013 28.0119 4.73729 27.8542 4.6486 27.6772C4.55991 27.5002 4.50713 27.3075 4.4933 27.11C4.47948 26.9125 4.50487 26.7142 4.56803 26.5266C4.63119 26.339 4.73087 26.1657 4.8613 26.0168C4.99174 25.8679 5.15036 25.7463 5.32803 25.659L23.328 16.659Z" fill="#F98948"/>
</svg>
